Coordinates
version=1
nRows=13
nColumns=40
inDegrees=yes

Units are S.I. units (second, meters, Newtons, ...)
If the header above contains a line with 'inDegrees', this indicates whether rotational values are in degrees (yes) or radians (no).

endheader
time	pelvis_tilt	pelvis_list	pelvis_rotation	pelvis_tx	pelvis_ty	pelvis_tz	hip_flexion_r	hip_adduction_r	hip_rotation_r	knee_angle_r	knee_angle_r_beta	ankle_angle_r	subtalar_angle_r	mtp_angle_r	hip_flexion_l	hip_adduction_l	hip_rotation_l	knee_angle_l	knee_angle_l_beta	ankle_angle_l	subtalar_angle_l	mtp_angle_l	lumbar_extension	lumbar_bending	lumbar_rotation	arm_flex_r	arm_add_r	arm_rot_r	elbow_flex_r	pro_sup_r	wrist_flex_r	wrist_dev_r	arm_flex_l	arm_add_l	arm_rot_l	elbow_flex_l	pro_sup_l	wrist_flex_l	wrist_dev_l
      0.17500000	     -4.38970741	      2.34706707	      7.38482792	     -0.48417361	      0.88631514	      0.22544429	     30.78666544	     -8.74670188	    -21.02451122	     10.69930295	      0.18673806	     -1.08746299	      5.29734331	      0.00000000	    -19.24872638	     -0.23526645	    -16.56895028	     10.12801404	      0.17676719	     -1.65106557	     13.87396721	      0.00000000	      0.38831899	     -0.68305155	     -3.66511091	      6.31699945	     -3.09145645	      6.31699945	     56.82310940	     49.79855748	      0.00000000	      0.00000000	      6.31699945	     -3.09145645	      6.31699945	     56.82310940	     49.79855748	      0.00000000	      0.00000000
      0.18000000	     -4.19234429	      1.96436808	      7.55708157	     -0.47606951	      0.88616901	      0.22566698	     30.44095010	     -8.41142936	    -21.13029802	     11.23361470	      0.19606356	     -1.65145868	      4.60246392	      0.00000000	    -19.62912337	     -0.88231594	    -16.58042098	     10.56405036	      0.18437746	     -2.41013558	     13.49872314	      0.00000000	      0.33163697	     -0.13584569	     -3.88125567	      6.35040122	     -3.10725843	      6.35040122	     56.87263907	     49.76405820	      0.00000000	      0.00000000	      6.35040122	     -3.10725843	      6.35040122	     56.87263907	     49.76405820	      0.00000000	      0.00000000
      0.18500000	     -3.79922769	      1.35977236	      7.79696421	     -0.46788442	      0.88645548	      0.22569879	     29.68055943	     -7.78810369	    -21.22340671	     11.35873569	      0.19824734	     -2.55795037	      3.72068606	      0.00000000	    -20.18349131	     -1.79860192	    -16.55106559	     10.98848693	      0.19178528	     -3.15939326	     13.12849520	      0.00000000	      0.10299652	      0.63012397	     -4.41031010	      6.45135650	     -3.15499062	      6.45135650	     57.02179374	     49.66097897	      0.00000000	      0.00000000	      6.45135650	     -3.15499062	      6.45135650	     57.02179374	     49.66097897	      0.00000000	      0.00000000
      0.19000000	     -3.61998647	      1.02677404	      7.78749400	     -0.45968531	      0.88638269	      0.22625377	     29.44056108	     -7.44262996	    -21.23402414	     12.05529511	      0.21040459	     -3.16402778	      3.19596303	      0.00000000	    -20.49972430	     -2.35566580	    -16.82657439	     11.48061994	      0.20037462	     -4.26702348	     12.68793285	      0.00000000	      0.06829089	      1.07949156	     -4.62092430	      6.47240428	     -3.16493458	      6.47240428	     57.05275709	     49.63976788	      0.00000000	      0.00000000	      6.47240428	     -3.16493458	      6.47240428	     57.05275709	     49.63976788	      0.00000000	      0.00000000
      0.19500000	     -3.38598036	      0.62398098	      7.79165134	     -0.45147895	      0.88647153	      0.22680492	     29.12742776	     -7.02988816	    -21.29917816	     12.75218032	      0.22256753	     -3.82221597	      2.56466063	      0.00000000	    -20.82488956	     -2.99692414	    -17.06273445	     12.04191269	      0.21017102	     -5.36604659	     12.13715261	      0.00000000	     -0.01026349	      1.59610222	     -4.86363065	      6.49472382	     -3.17547717	      6.49472382	     57.08555033	     49.61736293	      0.00000000	      0.00000000	      6.49472382	     -3.17547717	      6.49472382	     57.08555033	     49.61736293	      0.00000000	      0.00000000
      0.20000000	     -3.12658418	      0.19118221	      7.78636297	     -0.44323692	      0.88672035	      0.22740918	     28.75838799	     -6.57142958	    -21.36523903	     13.39731936	      0.23382733	     -4.51263066	      1.95611090	      0.00000000	    -21.12729165	     -3.67408330	    -17.31402793	     12.67271360	      0.22118058	     -6.50356534	     11.49958472	      0.00000000	     -0.10916013	      2.13733136	     -5.12217050	      6.51773073	     -3.18634179	      6.51773073	     57.11930484	     49.59437163	      0.00000000	      0.00000000	      6.51773073	     -3.18634179	      6.51773073	     57.11930484	     49.59437163	      0.00000000	      0.00000000
      0.20500000	     -2.80655170	     -0.32378184	      7.78645493	     -0.43500214	      0.88715818	      0.22801120	     28.28506250	     -6.01012772	    -21.45316068	     13.94895706	      0.24345523	     -5.28636199	      1.28129243	      0.00000000	    -21.41977616	     -4.45491628	    -17.57771672	     13.42231163	      0.23426353	     -7.68304160	     10.73925004	      0.00000000	     -0.26832366	      2.76559309	     -5.44810855	      6.55130426	     -3.20219197	      6.55130426	     57.16847908	     49.56100055	      0.00000000	      0.00000000	      6.55130426	     -3.20219197	      6.55130426	     57.16847908	     49.56100055	      0.00000000	      0.00000000
      0.21000000	     -2.52178121	     -0.77813016	      7.69219705	     -0.42673589	      0.88763489	      0.22885093	     27.88790450	     -5.48246756	    -21.44718478	     14.58710512	      0.25459301	     -5.93965034	      0.79653907	      0.00000000	    -21.65268572	     -5.16000648	    -17.96461728	     14.21054698	      0.24802083	     -9.02517646	      9.96242191	      0.00000000	     -0.39983322	      3.28586974	     -5.69013343	      6.57257051	     -3.21222877	      6.57257051	     57.19957387	     49.53997236	      0.00000000	      0.00000000	      6.57257051	     -3.21222877	      6.57257051	     57.19957387	     49.53997236	      0.00000000	      0.00000000
      0.21500000	     -2.21044135	     -1.26857477	      7.56180972	     -0.41851270	      0.88822191	      0.22972906	     27.46524688	     -4.89877800	    -21.43964855	     15.20568655	      0.26538930	     -6.56143219	      0.26377533	      0.00000000	    -21.84155377	     -5.89490767	    -18.35281324	     15.13438992	      0.26414493	    -10.40762820	      9.07469631	      0.00000000	     -0.56182860	      3.86203487	     -5.94162130	      6.59573858	     -3.22316052	      6.59573858	     57.23340091	     49.51716667	      0.00000000	      0.00000000	      6.59573858	     -3.22316052	      6.59573858	     57.23340091	     49.51716667	      0.00000000	      0.00000000
      0.22000000	     -1.71927605	     -2.17014474	      7.59407070	     -0.41027887	      0.88923870	      0.23032391	     26.55394132	     -3.77069334	    -21.35014563	     15.09054161	      0.26337964	     -7.76444822	     -0.82285212	      0.00000000	    -21.99776135	     -7.22559732	    -18.97181548	     16.46883034	      0.28743531	    -11.51185662	      8.29991075	      0.00000000	     -0.85560402	      4.82983872	     -6.58818928	      6.74362890	     -3.29288982	      6.74362890	     57.44835256	     49.37367975	      0.00000000	      0.00000000	      6.74362890	     -3.29288982	      6.74362890	     57.44835256	     49.37367975	      0.00000000	      0.00000000
      0.22500000	     -1.38191384	     -2.76349940	      7.37810064	     -0.40200687	      0.88996644	      0.23148618	     26.06894635	     -2.97633654	    -21.19011238	     15.60007017	      0.27227259	     -8.35003485	     -1.52046489	      0.00000000	    -22.07029583	     -8.13669084	    -19.66552013	     17.71402799	      0.30916811	    -12.98719285	      7.40874829	      0.00000000	     -1.01675146	      5.44126562	     -6.80219418	     24.14662043	    -11.09825380	     24.14662043	     77.64852715	     40.84599134	      0.00000000	      0.00000000	     24.14662043	    -11.09825380	     24.14662043	     77.64852715	     40.84599134	      0.00000000	      0.00000000
      0.23000000	     -1.13467919	     -3.17094631	      7.11418097	     -0.39380611	      0.89066250	      0.23276568	     25.75364004	     -2.42179926	    -21.00555142	     16.34693070	      0.28530776	     -8.58677663	     -1.90370746	      0.00000000	    -22.03240605	     -8.81159219	    -20.23257683	     18.94637169	      0.33067657	    -14.64408452	      6.21936516	      0.00000000	     -1.16813783	      5.86330402	     -6.89383147	     24.16253199	    -11.10306290	     24.16253199	     77.64213493	     40.87397524	      0.00000000	      0.00000000	     24.16253199	    -11.10306290	     24.16253199	     77.64213493	     40.87397524	      0.00000000	      0.00000000
      0.23500000	     -0.97751295	     -3.74646845	      6.87535890	     -0.38566457	      0.89124789	      0.23409731	     25.43644336	     -1.61500343	    -20.65886743	     16.79814821	      0.29318299	     -9.06563134	     -2.74531202	      0.00000000	    -21.69748512	     -9.76714303	    -20.92164277	     20.64494488	      0.36032226	    -16.01264628	      5.00360030	      0.00000000	     -1.18047141	      6.48075755	     -6.87292465	     24.21273729	    -11.11822368	     24.21273729	     77.62203228	     40.96116725	      0.00000000	      0.00000000	     24.21273729	    -11.11822368	     24.21273729	     77.62203228	     40.96116725	      0.00000000	      0.00000000
